<svg xmlns="http://www.w3.org/2000/svg" viewBox="0 0 100 100"><path d="M76,90V55a1,1,0,0,0-1-1H53.13c3.4-28.15,21.62-42.55,22.46-43.2a1,1,0,0,0-1-1.71C73.5,9.56,49.62,20.22,43.4,54H20.14a1,1,0,0,0-1,1V90a1,1,0,0,0,1,1H75A1,1,0,0,0,76,90ZM44,62.42a1,1,0,0,0,.33-.65C46.8,35.69,59.58,21.86,68,15.49A71.56,71.56,0,0,0,50.59,61.6a1,1,0,0,0,.34.78A10.09,10.09,0,0,1,54,70c0,5-2.92,9-6.5,9S41,75,41,70A10.2,10.2,0,0,1,44,62.42ZM74,89H21.14V86H74Zm0-5H21.14V56H43.07c-.27,1.69-.51,3.41-.69,5.21A12.39,12.39,0,0,0,39,70c0,6.07,3.81,11,8.5,11S56,76.07,56,70a12.3,12.3,0,0,0-3.4-8.81c0-1.78.16-3.5.31-5.19H74Z"/><path d="M33.93,72.64a4.93,4.93,0,1,0,4.93,4.93A4.93,4.93,0,0,0,33.93,72.64Zm0,7.86a2.93,2.93,0,1,1,2.93-2.93A2.93,2.93,0,0,1,33.93,80.5Z"/><path d="M63.14,81.71A4.14,4.14,0,1,0,59,77.57,4.14,4.14,0,0,0,63.14,81.71Zm0-6.28A2.14,2.14,0,1,1,61,77.57,2.15,2.15,0,0,1,63.14,75.43Z"/><path d="M32.54,63.55a4.15,4.15,0,1,0-4.15,4.15A4.15,4.15,0,0,0,32.54,63.55ZM28.39,65.7a2.15,2.15,0,1,1,2.15-2.15A2.14,2.14,0,0,1,28.39,65.7Z"/><path d="M64.59,70.59A5.59,5.59,0,1,0,59,65,5.6,5.6,0,0,0,64.59,70.59Zm0-9.18A3.59,3.59,0,1,1,61,65,3.59,3.59,0,0,1,64.59,61.41Z"/></svg>