<svg xmlns="http://www.w3.org/2000/svg" viewBox="0 0 100 100"><path d="M71.94,10.1a1,1,0,0,0-1-1.1h-35a1,1,0,0,0-1,.86c-.14,1-3.47,24.74-3.47,27.46a11.18,11.18,0,0,1-1,2.81c-1.63,3.85-4.35,10.28-.43,16.92,4.82,8.16,6.53,32.77,6.54,33a1,1,0,0,0,1,.93H64.08a1,1,0,0,0,.78-.37c1.91-2.36,1.88-13.46,1.64-28.89-.11-7-.23-15,.26-16.17C68.47,43.1,71.15,17.85,71.94,10.1Zm-25,.9H52.4c.13,4.2.61,20.69.61,22.63,0,2.16,1,2.81,3.05,4.1.78.5,1.75,1.12,3,2s1.1,1.72.68,2.34c-1.09,1.62-3.91,2.48-4.55,2.08-2.59-1.65-4.61-1.66-8.32-.08a4.76,4.76,0,0,1-3.83.31A5.35,5.35,0,0,1,40.49,41,1.56,1.56,0,0,1,40.38,40c.15-.31.86-.55,1.55-.77,1.35-.45,3.21-1.06,3.88-3.16C46.84,32.75,46.94,15.72,46.94,11ZM53,62c0,2-.5,22.24-.61,27H46.94c0-5.34-.08-26-1.13-29.35-.67-2.11-2.53-2.72-3.88-3.16-.69-.23-1.4-.46-1.55-.77a1.59,1.59,0,0,1,.11-1.07A5.38,5.38,0,0,1,43,51.27a4.85,4.85,0,0,1,3.83.31c3.71,1.59,5.73,1.57,8.32-.07.64-.4,3.46.45,4.55,2.08.42.61.66,1.37-.68,2.33s-2.22,1.51-3,2C54,59.22,53,59.87,53,62ZM65.17,44.36c-.81,1-.87,4.58-.67,17.41.15,9.72.38,24.17-1,27.23H54.4c.12-4.85.61-25,.61-27,0-1,.1-1.13,2.12-2.42.81-.51,1.8-1.15,3.09-2.07,2-1.39,2.39-3.29,1.18-5.08C60,50.34,56,48.61,54.12,49.82s-3.08,1.37-6.46-.08a6.65,6.65,0,0,0-5.43-.29c-1.6.71-2.82,2.24-3.63,4.55a3.32,3.32,0,0,0,0,2.61,4.17,4.17,0,0,0,2.72,1.78c1.39.46,2.26.81,2.6,1.86.85,2.66,1,20.78,1,28.75H38.55c-.36-4.7-2.18-25.24-6.75-33-3.41-5.77-1-11.4.55-15.12a10.77,10.77,0,0,0,1.13-3.59c0-2,2.11-17.61,3.33-26.32h8.13c0,6.75-.2,21.77-1,24.41-.34,1.05-1.21,1.41-2.6,1.87a4.1,4.1,0,0,0-2.72,1.78,3.31,3.31,0,0,0,0,2.61,7.2,7.2,0,0,0,3.63,4.55,5.27,5.27,0,0,0,2.17.45,8.32,8.32,0,0,0,3.26-.75c3.38-1.45,4.67-1.21,6.46-.08s5.85-.52,7.28-2.65c1.21-1.79.77-3.69-1.18-5.07-1.29-.92-2.28-1.56-3.09-2.07-2-1.29-2.12-1.41-2.12-2.42,0-2-.48-18.3-.61-22.63H69.83C68.26,26.25,66.13,42.85,65.17,44.36Z"/></svg>